<svg version="1.1" id="Layer_1" xmlns="http://www.w3.org/2000/svg" xmlns:xlink="http://www.w3.org/1999/xlink" x="0px" y="0px"
	 width="100%" viewBox="0 0 496 496" enable-background="new 0 0 496 496" xml:space="preserve">
<path fill="#000000" opacity="1.000000" stroke="none" 
	d="
M155.183868,363.856384 
	C125.721825,340.650208 107.502327,310.705414 102.108398,274.177856 
	C95.019279,226.170486 108.127571,183.858200 142.553070,148.845062 
	C145.990372,145.349091 146.045227,145.403030 151.321182,146.321396 
	C110.381584,186.339371 94.716522,233.907028 109.871254,289.500427 
	C119.009422,323.022736 139.304001,349.316864 168.663773,368.221466 
	C227.361832,406.016937 313.712372,397.758484 364.048706,321.769379 
	C359.529968,318.351990 357.849487,313.953613 359.438660,308.246643 
	C360.119385,305.802002 358.333557,303.453674 357.828674,301.025238 
	C356.230011,293.336090 359.209625,290.130493 367.008179,290.440460 
	C370.595825,290.583099 375.131775,292.510864 377.497223,286.858948 
	C371.781097,285.355560 369.049255,281.456299 368.898712,275.988342 
	C368.811432,272.820099 369.523468,269.564636 372.546265,267.678314 
	C375.618286,265.761261 377.755280,268.436493 380.858154,270.055481 
	C384.071472,246.700867 381.695221,224.444046 373.588196,202.778946 
	C365.455780,181.045975 352.685577,162.405136 335.324951,146.869858 
	C338.388153,143.750671 340.383667,145.491486 342.392059,147.432404 
	C363.465637,167.797852 377.254333,192.252899 383.296661,220.941940 
	C387.783447,242.245453 387.467255,263.552216 382.487305,284.770874 
	C382.186035,286.054504 382.063599,287.380096 381.879547,288.548889 
	C382.525116,289.964447 383.889984,289.857574 384.882751,290.366089 
	C390.787720,293.390778 392.312195,298.009583 387.863037,302.857147 
	C381.524109,309.763794 376.944427,318.504425 367.908417,322.791870 
	C366.730164,323.350861 366.060425,325.069458 365.256256,326.316162 
	C343.776062,359.619171 314.203796,382.184235 275.291138,390.322388 
	C231.798325,399.418396 191.249649,391.796265 155.183868,363.856384 
z"/>
<path fill="#000000" opacity="1.000000" stroke="none" 
	d="
M266.593140,198.587036 
	C260.614655,177.755356 241.592773,175.436035 226.833954,177.820282 
	C223.503845,178.358246 220.908844,180.673660 218.138016,182.557266 
	C210.284286,187.896194 202.401871,193.325958 192.341431,193.486542 
	C190.692169,193.512878 189.021301,193.427307 187.391388,193.185028 
	C182.685669,192.485580 180.809570,194.069244 180.326736,198.882675 
	C179.337646,208.743622 183.947815,215.471008 192.084686,220.227921 
	C197.600372,223.452469 203.634125,225.335632 209.855972,226.646088 
	C218.816147,228.533295 221.176620,231.434464 221.220993,240.709412 
	C221.241409,244.973602 221.224487,249.237976 221.224487,254.381714 
	C225.753418,251.187042 227.264847,247.036514 229.573730,243.551895 
	C233.575073,237.512955 237.380371,237.448547 241.161560,243.720520 
	C244.165054,248.702454 244.964096,254.322327 245.219345,260.009094 
	C245.326660,262.400330 245.497101,264.611847 247.386520,266.401733 
	C262.331238,280.559265 268.794678,298.966827 273.305573,318.336426 
	C273.756775,320.273926 274.093719,322.243408 274.372528,324.213776 
	C274.542023,325.411926 274.382782,326.665833 272.948151,327.019073 
	C271.222839,327.443939 270.488739,326.166382 270.137726,324.854462 
	C269.279053,321.645020 268.625854,318.381256 267.810242,315.159515 
	C263.415253,297.798035 256.842438,281.585876 243.263458,269.125854 
	C240.939987,266.993835 240.715042,264.313568 240.613327,261.387085 
	C240.411377,255.576416 239.863800,249.789474 235.706223,244.766296 
	C232.429825,246.811081 231.186172,250.171432 229.512390,253.060303 
	C226.882156,257.599884 223.187531,259.495483 218.001953,259.455750 
	C208.619827,259.383850 206.407852,261.119843 203.670074,269.921173 
	C202.232513,274.542572 199.930283,278.473419 195.318329,280.573761 
	C191.981750,282.093323 191.548874,284.600677 193.022781,287.571533 
	C195.514771,292.594482 197.784149,296.760437 205.061783,297.173065 
	C219.880112,298.013184 226.708069,309.105194 222.400620,323.195587 
	C221.834625,325.047028 221.570374,327.746552 218.816483,326.857819 
	C216.484070,326.105072 217.596649,323.746338 217.975357,322.049835 
	C220.241302,311.898743 218.314926,306.554962 210.719803,303.175415 
	C207.371002,301.685272 203.687500,301.077881 199.999756,301.323700 
	C196.520798,301.555634 194.320526,300.125092 192.918243,297.016785 
	C191.356506,293.554993 188.596710,290.763519 187.696793,286.872498 
	C186.688950,282.514740 187.767242,279.092712 191.722473,277.203766 
	C196.416626,274.961945 198.715775,271.272736 199.693497,266.447052 
	C201.103058,259.490021 205.654205,255.706100 212.394119,254.908554 
	C216.014648,254.480148 216.696884,252.856049 216.704208,249.721848 
	C216.748505,230.776443 217.411819,233.570877 201.671616,229.277145 
	C190.057510,226.108978 179.760376,220.806839 176.401581,207.749710 
	C175.223572,203.170181 175.215652,198.502121 176.655472,193.955673 
	C177.934631,189.916534 181.257965,187.494232 185.041260,188.328415 
	C197.023544,190.970428 206.109390,185.012390 215.047440,178.900162 
	C227.380676,170.466187 246.954086,170.248108 259.116333,178.985443 
	C268.281616,185.569778 271.569702,195.120117 272.267181,205.815613 
	C272.656647,211.788193 272.408203,217.801590 272.772003,223.776810 
	C273.637360,237.987747 282.959991,247.711334 291.498230,257.652924 
	C300.578766,268.225922 308.066956,279.754089 314.320282,292.146118 
	C314.834442,293.165009 315.536652,294.184143 314.982239,295.562408 
	C312.615112,297.026886 310.927124,296.028412 309.841675,293.772614 
	C302.100586,277.685059 290.811127,264.093750 279.466400,250.548706 
	C271.048584,240.498199 267.418182,228.908905 267.755066,215.896225 
	C267.901428,210.243423 267.959320,204.564224 266.593140,198.587036 
z"/>
<path fill="#000000" opacity="1.000000" stroke="none" 
	d="
M231.583130,220.197937 
	C236.684769,226.988174 247.351608,229.379578 254.096176,225.243195 
	C259.210663,222.106537 259.531189,216.376160 260.605530,211.242722 
	C261.559479,206.684433 261.891052,202.040070 260.559906,197.433014 
	C260.165100,196.066574 260.253448,194.605179 261.868744,194.137024 
	C263.534027,193.654358 264.168579,195.052780 264.747620,196.277069 
	C268.208862,203.595062 264.349060,223.000488 258.388367,228.279221 
	C253.625305,232.497345 241.322525,233.000153 234.101761,229.271759 
	C228.139908,226.193420 224.767227,219.566986 225.836914,211.971558 
	C227.185608,202.394821 231.104111,193.817825 236.990341,186.155579 
	C237.974548,184.874435 239.081650,183.080231 240.995758,184.575760 
	C242.757339,185.952148 241.725235,187.615677 240.717285,188.979218 
	C236.006790,195.351578 232.684113,202.321655 230.941315,210.095383 
	C230.184052,213.473083 230.116440,216.654785 231.583130,220.197937 
z"/>
<path fill="#000000" opacity="1.000000" stroke="none" 
	d="
M335.979614,287.775238 
	C342.616730,285.478790 348.338501,286.993256 351.416809,291.556549 
	C354.414673,296.000610 352.618744,299.819824 347.305725,300.299072 
	C339.007446,301.047668 332.875183,294.560516 335.979614,287.775238 
z"/>
<path fill="#000000" opacity="1.000000" stroke="none" 
	d="
M355.866150,286.534210 
	C350.968201,283.801971 348.449951,280.035919 348.694336,274.681427 
	C348.886902,270.461304 351.254547,268.745636 355.292694,269.853851 
	C359.801880,271.091370 364.244568,278.538879 362.921844,282.961487 
	C361.946808,286.221558 359.938904,288.117157 355.866150,286.534210 
z"/>
<path fill="#000000" opacity="1.000000" stroke="none" 
	d="
M351.276917,315.304749 
	C347.059845,318.155243 342.921387,318.678101 338.712097,316.442078 
	C334.607330,314.261627 334.523773,309.560181 338.568787,307.324524 
	C341.738983,305.572388 345.108246,305.068573 348.648254,306.560150 
	C353.057953,308.418274 353.865082,310.589294 351.276917,315.304749 
z"/>
<path fill="#000000" opacity="1.000000" stroke="none" 
	d="
M227.005966,187.872818 
	C227.899460,192.684586 224.223587,193.217133 221.361908,193.811569 
	C218.053360,194.498810 215.073318,192.978500 213.313843,190.062683 
	C212.359848,188.481720 213.871582,186.340424 215.168350,187.301651 
	C219.178177,190.273987 222.929901,187.625061 227.005966,187.872818 
z"/>
<path fill="#000000" opacity="1.000000" stroke="none" 
	d="
M215.484619,275.611084 
	C212.034515,278.030151 208.973450,277.567749 206.036255,275.482391 
	C204.939255,274.703522 203.962296,273.631104 204.723969,272.157013 
	C205.472870,270.707611 206.845032,270.618896 208.099075,271.386017 
	C209.802704,272.428162 211.386368,272.659790 213.151489,271.564240 
	C214.348251,270.821411 215.714096,270.549988 216.651688,271.921967 
	C217.571075,273.267365 216.840454,274.401855 215.484619,275.611084 
z"/>
<path fill="#000000" opacity="1.000000" stroke="none" 
	d="
M172.283569,124.181572 
	C174.985458,121.308899 177.693008,120.701157 179.852249,124.035477 
	C181.501419,126.582153 179.833771,128.746307 177.528809,129.549866 
	C173.047318,131.112244 173.168442,127.053986 172.283569,124.181572 
z"/>
<path fill="#000000" opacity="1.000000" stroke="none" 
	d="
M155.503906,145.318466 
	C152.309647,145.450134 150.950363,143.863266 150.697311,141.193542 
	C150.516724,139.288239 151.502808,138.069183 153.246521,137.423828 
	C155.427139,136.616806 156.896790,138.026443 157.815491,139.479980 
	C159.368484,141.937088 158.071014,143.840378 155.503906,145.318466 
z"/>
<path fill="#000000" opacity="1.000000" stroke="none" 
	d="
M303.033051,120.976242 
	C300.392242,125.319359 297.804138,121.223068 295.003937,121.244057 
	C294.742218,118.045853 295.445557,115.183510 298.515686,114.983452 
	C301.506134,114.788589 303.880432,116.641190 303.042053,120.710297 
	C303.001831,121.012596 303.033051,120.976242 303.033051,120.976242 
z"/>
<path fill="#000000" opacity="1.000000" stroke="none" 
	d="
M284.626526,117.071747 
	C282.069916,117.521324 280.161469,117.127983 279.263000,114.896431 
	C278.659241,113.396904 279.068481,111.892525 280.168884,110.729019 
	C281.489044,109.333176 283.356812,109.249069 284.800629,110.049866 
	C288.460999,112.080040 287.079987,114.562973 284.626526,117.071747 
z"/>
<path fill="#000000" opacity="1.000000" stroke="none" 
	d="
M259.726624,104.840454 
	C261.093872,107.337044 260.236328,109.460609 259.261719,111.887741 
	C257.263306,111.838333 255.326614,110.895241 253.438507,111.513855 
	C250.800766,104.691315 255.366302,104.903961 259.726624,104.840454 
z"/>
<path fill="#000000" opacity="1.000000" stroke="none" 
	d="
M183.269836,117.814911 
	C186.977448,117.709526 186.947144,120.631424 187.823425,122.749916 
	C188.317703,123.944893 187.470673,124.601234 186.603577,125.120392 
	C184.697647,126.261536 182.922150,126.603378 181.549652,124.263931 
	C180.027298,121.669067 179.349106,119.325119 183.269836,117.814911 
z"/>
<path fill="#000000" opacity="1.000000" stroke="none" 
	d="
M312.106842,129.999939 
	C309.248749,127.789307 310.133362,125.755630 311.816376,123.819633 
	C313.137787,122.299576 314.749298,122.492012 316.304230,123.462982 
	C317.912659,124.467346 318.478943,125.783417 317.670563,127.690903 
	C316.623993,130.160339 315.326996,131.783386 312.106842,129.999939 
z"/>
<path fill="#000000" opacity="1.000000" stroke="none" 
	d="
M302.989075,121.032921 
	C306.580841,117.548836 306.580841,117.548836 310.979950,120.820908 
	C309.077698,122.544510 310.069733,126.763382 306.028900,126.459229 
	C303.553986,126.272942 302.307220,124.427864 302.973572,121.371002 
	C303.033051,120.976242 303.001831,121.012596 302.989075,121.032921 
z"/>
<path fill="#000000" opacity="1.000000" stroke="none" 
	d="
M169.751984,126.549515 
	C172.281143,127.466660 172.245697,129.723343 173.431763,131.338394 
	C171.517380,132.479874 169.884155,133.453690 168.285782,134.406738 
	C163.474869,129.625351 163.722900,128.052933 169.751984,126.549515 
z"/>
<path fill="#000000" opacity="1.000000" stroke="none" 
	d="
M237.950714,110.889626 
	C235.997406,110.863594 234.170105,109.940254 232.699036,112.021118 
	C230.558945,109.755104 231.089035,107.547531 231.538254,104.883774 
	C233.606262,105.384354 235.553268,105.589203 237.183685,104.305649 
	C239.111801,106.452271 238.344650,108.589806 237.950714,110.889626 
z"/>
<path fill="#000000" opacity="1.000000" stroke="none" 
	d="
M331.037964,142.194550 
	C329.479370,141.132324 328.248749,140.118286 326.920441,139.023743 
	C327.453461,136.660919 328.623383,134.676071 331.051483,134.089630 
	C332.656830,133.701920 333.855896,135.073639 334.472443,136.425949 
	C335.915924,139.592072 332.990448,140.608307 331.037964,142.194550 
z"/>
<path fill="#000000" opacity="1.000000" stroke="none" 
	d="
M248.292099,112.156708 
	C243.902588,111.759918 244.316391,108.786507 244.850143,106.245865 
	C245.533844,102.991386 248.027908,103.676888 250.877609,104.407272 
	C249.012085,106.819481 252.662216,110.304863 248.292099,112.156708 
z"/>
<path fill="#000000" opacity="1.000000" stroke="none" 
	d="
M189.008286,120.130829 
	C188.569092,114.544724 189.732803,113.468338 194.276001,114.771400 
	C194.617706,115.835411 193.982468,116.233055 193.111969,116.477058 
	C192.266342,116.714088 191.588730,117.108269 191.617325,118.219948 
	C192.967743,120.619125 194.408371,117.135521 195.780304,118.203392 
	C194.646194,122.535225 193.231903,123.019455 189.008286,120.130829 
z"/>
<path fill="#000000" opacity="1.000000" stroke="none" 
	d="
M201.985687,117.138519 
	C200.130554,116.643509 200.675095,119.659851 198.487213,118.744179 
	C197.055679,117.181221 196.354675,115.138039 196.956406,112.274139 
	C198.889557,113.061066 200.540222,112.411865 201.831207,110.898895 
	C204.847946,115.723473 204.848297,115.735565 201.985687,117.138519 
z"/>
<path fill="#000000" opacity="1.000000" stroke="none" 
	d="
M158.960358,135.964478 
	C158.810379,134.234314 158.618011,132.497803 160.444321,132.544144 
	C162.900513,132.606476 165.224365,133.459702 166.825119,136.235138 
	C164.488434,137.132233 162.549759,138.203171 161.346146,140.002731 
	C159.102356,139.437881 159.409439,137.696457 158.960358,135.964478 
z"/>
<path fill="#000000" opacity="1.000000" stroke="none" 
	d="
M225.992065,108.258560 
	C224.936584,112.359474 228.888046,108.555794 229.280197,111.180115 
	C228.476562,113.183434 226.701416,113.867020 224.460907,112.617012 
	C222.302963,111.413086 221.487793,109.191559 222.849915,107.120522 
	C224.465042,104.664764 226.856445,104.631989 229.220718,106.275864 
	C229.099274,108.697655 227.173538,107.518456 225.992065,108.258560 
z"/>
<path fill="#000000" opacity="1.000000" stroke="none" 
	d="
M272.277710,109.487007 
	C274.256989,107.147186 275.668976,107.023445 276.671753,109.896545 
	C277.265381,111.597290 277.998291,113.258408 276.975769,115.422562 
	C274.821350,114.621933 272.736877,113.163116 270.344299,114.264000 
	C269.482239,111.918610 271.161194,110.991959 272.277710,109.487007 
z"/>
<path fill="#000000" opacity="1.000000" stroke="none" 
	d="
M327.974304,132.754456 
	C325.917542,136.336395 323.012177,134.395981 320.242371,134.826553 
	C320.318542,131.531860 321.959625,129.506805 324.427582,129.100250 
	C326.056305,128.831970 328.466949,129.712799 327.974304,132.754456 
z"/>
<path fill="#000000" opacity="1.000000" stroke="none" 
	d="
M266.272949,110.596336 
	C267.354950,110.786133 268.400635,110.795494 268.377991,111.871185 
	C268.358307,112.806076 267.471405,113.141830 266.599701,113.259911 
	C264.539307,113.539040 263.004578,112.766624 262.167786,110.864731 
	C261.384644,109.084755 262.000214,107.482445 263.484833,106.494896 
	C265.465515,105.177399 267.448853,105.251450 268.953186,107.142181 
	C268.772095,109.831688 265.577545,107.621475 265.350098,109.848328 
	C265.336304,109.983505 265.466827,110.159821 265.575531,110.273750 
	C265.685944,110.389465 265.852478,110.451599 266.272949,110.596336 
z"/>
<path fill="#000000" opacity="1.000000" stroke="none" 
	d="
M212.984711,112.700195 
	C213.450470,113.998718 213.584930,115.420227 212.156509,114.942039 
	C209.887634,114.182541 208.649200,116.608208 206.356567,116.250000 
	C206.036392,113.596291 206.438400,111.216743 208.068954,109.109612 
	C210.640381,109.036537 211.531189,110.998238 212.984711,112.700195 
z"/>
<path fill="#000000" opacity="1.000000" stroke="none" 
	d="
M292.591370,116.441017 
	C291.571198,117.608009 291.293610,119.199928 289.216431,118.987038 
	C287.814056,116.887596 289.192871,114.421623 288.399780,112.021332 
	C291.406250,111.205910 293.444489,112.153198 295.191681,113.714653 
	C295.213318,115.707146 293.478790,115.371063 292.591370,116.441017 
z"/>
<path fill="#000000" opacity="1.000000" stroke="none" 
	d="
M219.102386,106.817680 
	C219.890182,109.286240 219.250137,111.493774 218.575821,114.171661 
	C216.075073,112.547821 216.526627,109.194298 213.735504,108.650017 
	C215.046646,106.176323 217.021774,106.802383 219.102386,106.817680 
z"/>
<path fill="#000000" opacity="1.000000" stroke="none" 
	d="
M242.635361,105.893326 
	C242.879349,107.948181 243.741989,109.822281 241.590561,111.309914 
	C239.330856,109.772797 239.825943,107.634499 240.430588,105.658134 
	C240.818039,104.391678 241.749649,104.339317 242.635361,105.893326 
z"/>
</svg>